<?xml version="1.0" ?><svg enable-background="new 0 0 64 64" id="Слой_1" version="1.1" viewBox="0 0 64 64" xml:space="preserve" xmlns="http://www.w3.org/2000/svg" xmlns:xlink="http://www.w3.org/1999/xlink"><g id="row_1"><g id="doors_x5F_eye"><path d="M6,32c0,15.2,11.3,27.8,26,29.7c14.7-2,26-14.5,26-29.7V10c0-1.8-1.2-3.4-2.9-3.9C47.7,4.1,40,3,32,3    S16.3,4.1,8.9,6.2C7.2,6.7,6,8.3,6,10V32z" fill="#FFC107"/><path d="M32,57.7C19.4,55.7,10,44.8,10,32V10c7.2-2,14.6-3,22-3s14.8,1,22,3l0,22C54,44.8,44.6,55.7,32,57.7z" fill="#B71C1C"/><circle cx="32" cy="32" fill="#FFCDD2" r="19"/><circle cx="32" cy="32" fill="#FFFFFF" r="14"/><circle cx="32" cy="32" fill="#263238" r="12"/><circle cx="32" cy="32" fill="#5C6BC0" r="10"/><circle cx="32" cy="32" fill="#311B92" r="6"/><circle cx="32" cy="32" fill="#FFA000" r="2"/></g></g></svg>